<svg xmlns="http://www.w3.org/2000/svg" width="42" height="42"><circle fill="#C10069" cx="21" cy="21" r="21"/><path fill="#fff" d="M33.048 27.422c-2.064 4.173-7.735 4.578-11.798 4.578-4.125 0-10.14-.359-12.281-4.578-.797-1.577-.969-3.438-.969-5.172 0-2.281.625-4.437 2.125-6.188-.281-.859-.421-1.765-.421-2.656 0-1.172.265-2.344.796-3.407 2.468 0 4.047 1.079 5.922 2.547 1.578-.374 3.203-.546 4.828-.546 1.47 0 2.954.156 4.376.5 1.859-1.453 3.438-2.5 5.875-2.5.531 1.063.797 2.234.797 3.407 0 .891-.141 1.781-.423 2.625 1.501 1.764 2.125 3.937 2.125 6.218 0 1.734-.171 3.579-.952 5.172zm-6.547-6.921c-1.032 0-2.016.186-3.048.328-.812.125-1.624.171-2.453.171-.828 0-1.641-.046-2.453-.171-1.015-.142-2.015-.328-3.047-.328-2.547 0-4 2.109-4 4.499 0 4.781 4.375 5.517 8.187 5.517h2.625c3.813 0 8.188-.735 8.188-5.517.001-2.39-1.452-4.499-3.999-4.499zm-10.501 7.499c-1.406 0-2-1.858-2-3 0-1.141.594-3 2-3s2 1.859 2 3c0 1.142-.594 3-2 3zm10 0c-1.405 0-2-1.858-2-3 0-1.141.595-3 2-3 1.407 0 2 1.859 2 3 0 1.142-.593 3-2 3z"/></svg>