<?xml version="1.0" encoding="utf-8"?>
<!-- Generator: Adobe Illustrator 15.1.0, SVG Export Plug-In  -->
<!DOCTYPE svg PUBLIC "-//W3C//DTD SVG 1.1//EN" "http://www.w3.org/Graphics/SVG/1.1/DTD/svg11.dtd" [
	<!ENTITY ns_flows "http://ns.adobe.com/Flows/1.0/">
]>
<svg version="1.1"
	 xmlns="http://www.w3.org/2000/svg" xmlns:xlink="http://www.w3.org/1999/xlink" xmlns:a="http://ns.adobe.com/AdobeSVGViewerExtensions/3.0/"
	 x="0px" y="0px" width="42px" height="42px" viewBox="-0.828125 -0.829102 42 42"
	 overflow="visible" enable-background="new -0.828125 -0.829102 42 42" xml:space="preserve">
<defs>
</defs>
<g>
	<g>
		<path fill="#414042" d="M10.858398,12.807617c-0.458984-0.458984-0.688477-1.021484-0.688477-1.6875
			s0.229492-1.228516,0.688477-1.6875s1.020508-0.689453,1.6875-0.689453c0.665039,0,1.228516,0.230469,1.6875,0.689453
			s0.688477,1.021484,0.688477,1.6875s-0.229492,1.228516-0.688477,1.6875s-1.022461,0.689453-1.6875,0.689453
			C11.878906,13.49707,11.317383,13.266602,10.858398,12.807617z M14.570312,29.182617h-4.049805V14.657227h4.049805V29.182617z"/>
		<path fill="#414042" d="M22.454102,21.083008v8.099609h-4.049805V14.657227h4.049805v1.619141
			c1.223633-1.242188,2.600586-1.861328,4.130859-1.861328s2.8125,0.539062,3.847656,1.619141s1.552734,2.519531,1.552734,4.320312
			v8.828125h-4.049805v-8.207031c0-2.232422-0.819336-3.347656-2.457031-3.347656c-0.810547,0-1.516602,0.291016-2.120117,0.876953
			C22.755859,19.088867,22.454102,19.948242,22.454102,21.083008z"/>
	</g>
</g>
<path fill="#414042" d="M32.341797,3c2.756836,0,5,2.243164,5,5v24.341797c0,2.756836-2.243164,5-5,5H8c-2.756836,0-5-2.243164-5-5
	V8c0-2.756836,2.243164-5,5-5H32.341797 M32.341797,0H8C3.599609,0,0,3.599609,0,8v24.341797c0,4.400391,3.599609,8,8,8h24.341797
	c4.400391,0,8-3.599609,8-8V8C40.341797,3.599609,36.742188,0,32.341797,0L32.341797,0z"/>
</svg>
